# xmcd
# 
# Track frame offsets:
#     150
#     16135
#     30102
#     50052
#     64742
#     81752
#     99157
#     112835
#     129565
#     149025
#     166682
#     180950
#     195780
# 
# Disc length: 2815
# 
# Revision: 5
# Processed by: cddbd v1.5.2PL0 Copyright (c) Steve Scherf et al.
# Submitted via: BonkEnc v1.0.8
# 
DISCID=930afd0d
DTITLE=Mouskouri, Nana - Un Bolero Por Favor
DYEAR=2002
DGENRE=Boleros
TTITLE0=No Me Quieras Tanto
TTITLE1=Espinita
TTITLE2=Besame Mucho
TTITLE3=Piel Canela
TTITLE4=Usted
TTITLE5=Perfidia
TTITLE6=Rayito De Luna
TTITLE7=Piensa En Mi
TTITLE8=Bachata Rosa
TTITLE9=La Barca
TTITLE10=Angelitos Negros
TTITLE11=Me Voy Pa'l Pueblo
TTITLE12=Despierta Agapi Mou
EXTD=
EXTT0=
EXTT1=
EXTT2=
EXTT3=
EXTT4=
EXTT5=
EXTT6=
EXTT7=
EXTT8=
EXTT9=
EXTT10=
EXTT11=
EXTT12=
PLAYORDER=
